<?xml version="1.0" encoding="utf-8"?>
<!-- Generator: Adobe Illustrator 25.4.0, SVG Export Plug-In . SVG Version: 6.00 Build 0)  -->
<svg version="1.1" id="Layer_1" xmlns="http://www.w3.org/2000/svg" xmlns:xlink="http://www.w3.org/1999/xlink" x="0px" y="0px"
	 viewBox="0 0 4000 4000" style="enable-background:new 0 0 4000 4000;" xml:space="preserve">
<style type="text/css">
	.st0{fill:url(#SVGID_1_);}
	.st1{fill:url(#SVGID_00000155138445945107947220000009824465352268063637_);}
	.st2{fill:#6FBC44;}
	.st3{fill:url(#SVGID_00000129896165237233859680000012618063790430839983_);}
	.st4{fill:url(#SVGID_00000063627365443670321010000003307851003661631144_);}
	.st5{fill:url(#SVGID_00000113341222771264840850000002787704147626569891_);}
	.st6{fill:url(#SVGID_00000177442696961152210540000013044087510133875646_);}
	.st7{fill:url(#SVGID_00000038408387185198873510000014074808871463518603_);}
	.st8{fill:url(#SVGID_00000157277238117336996890000010018663088363440572_);}
	.st9{fill:url(#SVGID_00000011009350709706315680000002583310181238200994_);}
	.st10{fill:url(#SVGID_00000161618683008456051320000010000262466108340112_);}
	.st11{fill:url(#SVGID_00000019661885276475720480000007025022392923258516_);}
	.st12{fill:url(#SVGID_00000054233370392241893120000013100791488517900732_);}
	.st13{fill:url(#SVGID_00000142140997190087160570000000995427368672752316_);}
</style>
<g>
	<linearGradient id="SVGID_1_" gradientUnits="userSpaceOnUse" x1="533.3786" y1="2128.416" x2="2176.2561" y2="2128.416">
		<stop  offset="0" style="stop-color:#5EAD46"/>
		<stop  offset="0.9944" style="stop-color:#044D4C"/>
	</linearGradient>
	<path class="st0" d="M2176.26,2311.15l-67.74,75.65l-48.75,54.47H533.38l14.71-54.47l20.87-77.38h932.11c0-1.91-0.19-3.86-0.61-5.9
		c-1.63-8.52-6.8-18.09-15.44-28.65c-10.72-13.11-22.27-19.66-34.62-19.66H614.23c9.51-26.74,26.51-65.76,57.85-104.91
		c76.55-95.82,160.91-96.01,215.06-177.6c13.53-20.42,27.44-49.2,33.95-89.85c3.1-19.56,4.5-41.89,3.38-67.29
		c0.35,1.37,0.67,2.74,1.02,4.08c0.99,4.34,2.01,8.71,3,13.27c0.13,0.67,0.26,1.31,0.38,1.95c5.55,26.87,7.72,49.78,8.58,67.2
		c1.21,24.63,2.68,53.09-2.3,83.05c0,0.03,0,0.03,0,0.1c-2.74,16.56-7.43,33.6-15.25,50.7c-8.3,18.25-21.35,39.25-24.28,43.84
		c-9.35,14.71-19.94,29.55-31.81,44.51h619.07c53.13,0,88.99,18.35,107.56,55.04c3.13,6,6.06,12.22,8.81,18.6
		c5.49,12.67,10.27,26.1,14.42,40.27c2.81,9.09,5.46,19.85,7.91,32.23c2.49,12.35,4.72,25.37,6.76,39.02h164.87l-12.22-134.14
		l68.03-70.13l27.38-25.69l21.25,229.96h175.65l-11.58-125.01l94.8-97.7L2176.26,2311.15z"/>
	
		<linearGradient id="SVGID_00000036246261033119662400000012585108473191289479_" gradientUnits="userSpaceOnUse" x1="2268.3406" y1="2213.2896" x2="3466.6213" y2="2213.2896">
		<stop  offset="0" style="stop-color:#5EAD46"/>
		<stop  offset="0.9944" style="stop-color:#044D4C"/>
	</linearGradient>
	<path style="fill:url(#SVGID_00000036246261033119662400000012585108473191289479_);" d="M3466.62,2311.15l-0.03,0.06l-67.68,75.59
		l-48.75,54.47H2268.34v-131.84h400.44c1.15-2.3,2.78-6.48,2.14-11.49c-0.29-2.27-0.96-4.31-1.88-6.09
		c-2.07-4.05-5.33-6.89-7.63-8.9c-10.63-9.35-26.32-12-36.47-12.7c-4.05-0.29-7.21-0.29-8.84-0.26c-8.74-0.19-17.49-0.35-26.23-0.54
		c-3.83-0.06-7.63-0.16-11.45-0.22c-9.89-0.22-19.75-0.41-29.64-0.64h-0.03c-90.49-1.88-181.01-3.8-271.53-5.65
		c17.85-35.23,36.41-70.89,55.71-106.92c31.64-59.07,63.56-115.97,95.53-170.71c0.78,16.03,4.93,53.12,32.22,85.7
		c18.43,22,39,32.93,53.86,39.44c30.92,13.53,62.44,19.66,90.74,21.82c17.8,1.4,34.3,1.24,48.56,0.41
		c7.15-0.38,13.69-0.96,19.59-1.6c6.32,0,12.89,1.31,19.78,3.96c17.1,6.48,36.06,21.03,56.83,43.62
		c29.13,31.72,43.71,75.3,43.71,130.76h117.23c0-50.35,8.2-90.3,24.57-119.88c7.18-12.99,17.29-27.47,30.25-35.83
		c2.17-1.44,4.4-2.68,6.73-3.7c21.98-7.34,46.42-5.9,69.43-6.29c25.14-0.38,50.32-0.1,75.43,0.89c2.52,0.1,5.07,0.19,7.63,0.22
		c8.04,0.19,16.08-0.1,23.71-2.46c17.93-5.58,24.06-23.42,30.02-39.47l12-40.11c6.19,20.77,10.88,40.49,14.1,59.09
		c3.22,18.63,4.85,34.2,4.85,46.71c0,34.14-7.12,58.97-21.28,74.47c-13.56,14.77-28.37,20.8-46.04,22.72
		c-5.14,0.54-10.5,0.77-16.15,0.73c-29.67-0.1-59.35-0.22-89.02-0.35c-2.71,0-5.52,0-8.14,0.8c-2.78,0.89-5.2,2.65-7.43,4.5
		c-12.79,10.53-18.16,21.98-21.25,37.94l253.41,0.42v-0.42h109.89l-11.61-125.01l94.8-97.7L3466.62,2311.15z"/>
	<circle class="st2" cx="1881.04" cy="1983.46" r="64.97"/>
	<circle class="st2" cx="1732.66" cy="1983.46" r="64.97"/>
	<circle class="st2" cx="3400.72" cy="1983.46" r="64.97"/>
	<circle class="st2" cx="3254.52" cy="1985.4" r="64.97"/>
	<circle class="st2" cx="3040.38" cy="1983.46" r="64.97"/>
	<circle class="st2" cx="2548.75" cy="1983.46" r="64.97"/>
	<circle class="st2" cx="2044.68" cy="2559.65" r="64.97"/>
	<circle class="st2" cx="1898.48" cy="2561.59" r="64.97"/>
	
		<linearGradient id="SVGID_00000116919048185525663470000008911225151098793121_" gradientUnits="userSpaceOnUse" x1="3176.8037" y1="2217.449" x2="3545.1919" y2="2193.1213">
		<stop  offset="5.586592e-03" style="stop-color:#BDD546"/>
		<stop  offset="0.1633" style="stop-color:#AEC945;stop-opacity:0.8414"/>
		<stop  offset="0.4588" style="stop-color:#8AB144;stop-opacity:0.5443"/>
		<stop  offset="0.8573" style="stop-color:#519342;stop-opacity:0.1435"/>
		<stop  offset="1" style="stop-color:#358941;stop-opacity:0"/>
	</linearGradient>
	<path style="fill:url(#SVGID_00000116919048185525663470000008911225151098793121_);" d="M3466.62,2311.15l-0.03,0.06
		c-64.04-0.61-128.08-1.18-192.11-1.79h89.21l-11.61-125.01l94.8-97.7L3466.62,2311.15z"/>
	
		<linearGradient id="SVGID_00000026848305449346330020000006404080618110341784_" gradientUnits="userSpaceOnUse" x1="2160.9746" y1="2786.9265" x2="3043.9661" y2="2272.488">
		<stop  offset="5.586592e-03" style="stop-color:#BDD546"/>
		<stop  offset="0.1633" style="stop-color:#AEC945;stop-opacity:0.8414"/>
		<stop  offset="0.4588" style="stop-color:#8AB144;stop-opacity:0.5443"/>
		<stop  offset="0.8573" style="stop-color:#519342;stop-opacity:0.1435"/>
		<stop  offset="1" style="stop-color:#358941;stop-opacity:0"/>
	</linearGradient>
	<path style="fill:url(#SVGID_00000026848305449346330020000006404080618110341784_);" d="M3398.91,2386.8l-48.75,54.47H2268.34
		c0-21.35,0-42.71,0-64.06C2645.2,2380.4,3022.06,2383.6,3398.91,2386.8z"/>
	
		<linearGradient id="SVGID_00000112601401938233187440000008958859409566622875_" gradientUnits="userSpaceOnUse" x1="2776.3147" y1="2269.1357" x2="3110.3157" y2="2205.7908">
		<stop  offset="5.586592e-03" style="stop-color:#BDD546"/>
		<stop  offset="0.1633" style="stop-color:#AEC945;stop-opacity:0.8414"/>
		<stop  offset="0.4588" style="stop-color:#8AB144;stop-opacity:0.5443"/>
		<stop  offset="0.8573" style="stop-color:#519342;stop-opacity:0.1435"/>
		<stop  offset="1" style="stop-color:#358941;stop-opacity:0"/>
	</linearGradient>
	<path style="fill:url(#SVGID_00000112601401938233187440000008958859409566622875_);" d="M3142.47,2265.78
		c-0.03,0-0.06,0.03-0.1,0.03c-5.14,0.54-10.5,0.77-16.15,0.73c-29.67-0.1-59.35-0.22-89.02-0.35c-2.71,0-5.52,0-8.14,0.8
		c-2.78,0.89-5.2,2.65-7.43,4.5c-12.79,10.53-18.16,21.98-21.25,37.94c-10.47-12.95-29.99-40.68-37.2-81.2
		c-5.23-29.39-2.17-55.17,2.62-74.5c2.17-1.44,4.4-2.68,6.73-3.7c21.98-7.34,46.43-5.9,69.43-6.29c25.14-0.38,50.32-0.1,75.43,0.89
		c2.52,0.1,5.07,0.19,7.63,0.22L3142.47,2265.78z"/>
	
		<linearGradient id="SVGID_00000178195240814481961160000011640958210838947773_" gradientUnits="userSpaceOnUse" x1="2661.2153" y1="2309.6763" x2="2662.3867" y2="2309.3962">
		<stop  offset="5.586592e-03" style="stop-color:#BDD546"/>
		<stop  offset="1" style="stop-color:#358941;stop-opacity:0"/>
	</linearGradient>
	<path style="fill:url(#SVGID_00000178195240814481961160000011640958210838947773_);" d="M2661.69,2309.43h1.02
		C2662.49,2309.55,2662.14,2309.55,2661.69,2309.43z"/>
	
		<linearGradient id="SVGID_00000106125763644859568710000009514555845159757462_" gradientUnits="userSpaceOnUse" x1="2801.9285" y1="2218.417" x2="2641.6106" y2="2209.8562">
		<stop  offset="5.586592e-03" style="stop-color:#358941"/>
		<stop  offset="1" style="stop-color:#358941;stop-opacity:0"/>
	</linearGradient>
	<path style="fill:url(#SVGID_00000106125763644859568710000009514555845159757462_);" d="M2733.04,2229.47
		c-7.6,30.54-32.4,54.58-64,62.37c-2.07-4.05-5.33-6.89-7.63-8.9c-10.63-9.35-26.32-12-36.47-12.7
		c-17.45-26.13-33.38-62.99-28.81-103.19c1.47-12.83,4.82-24.47,9.16-34.78c17.8,1.4,34.3,1.24,48.56,0.41
		c7.15-0.38,13.69-0.96,19.59-1.6c6.32,0,12.89,1.31,19.78,3.96C2725.93,2155.41,2741.89,2193.89,2733.04,2229.47z"/>
	
		<linearGradient id="SVGID_00000013898641165243994800000007619116658499807928_" gradientUnits="userSpaceOnUse" x1="432.942" y1="2751.6985" x2="1492.5316" y2="2340.9155">
		<stop  offset="5.586592e-03" style="stop-color:#BDD546"/>
		<stop  offset="0.1633" style="stop-color:#AEC945;stop-opacity:0.8414"/>
		<stop  offset="0.4588" style="stop-color:#8AB144;stop-opacity:0.5443"/>
		<stop  offset="0.8573" style="stop-color:#519342;stop-opacity:0.1435"/>
		<stop  offset="1" style="stop-color:#358941;stop-opacity:0"/>
	</linearGradient>
	<polygon style="fill:url(#SVGID_00000013898641165243994800000007619116658499807928_);" points="2108.52,2386.8 2059.76,2441.27 
		533.38,2441.27 548.09,2386.8 	"/>
	
		<linearGradient id="SVGID_00000047741521341801184870000006457773700458900157_" gradientUnits="userSpaceOnUse" x1="2085.0996" y1="2460.2" x2="2135.0078" y2="2147.3137">
		<stop  offset="5.586592e-03" style="stop-color:#BDD546"/>
		<stop  offset="0.1633" style="stop-color:#AEC945;stop-opacity:0.8414"/>
		<stop  offset="0.4588" style="stop-color:#8AB144;stop-opacity:0.5443"/>
		<stop  offset="0.8573" style="stop-color:#519342;stop-opacity:0.1435"/>
		<stop  offset="1" style="stop-color:#358941;stop-opacity:0"/>
	</linearGradient>
	<path style="fill:url(#SVGID_00000047741521341801184870000006457773700458900157_);" d="M2176.26,2311.15l-0.03,0.06
		c-34.3-0.6-68.6-1.19-102.9-1.79l-11.61-125.01l94.8-97.7L2176.26,2311.15z"/>
	
		<linearGradient id="SVGID_00000005268769889208855400000016588572575565735851_" gradientUnits="userSpaceOnUse" x1="1840.7062" y1="2488.7002" x2="1838.7866" y2="2148.9404">
		<stop  offset="5.586592e-03" style="stop-color:#BDD546"/>
		<stop  offset="0.1633" style="stop-color:#AEC945;stop-opacity:0.8414"/>
		<stop  offset="0.4588" style="stop-color:#8AB144;stop-opacity:0.5443"/>
		<stop  offset="0.8573" style="stop-color:#519342;stop-opacity:0.1435"/>
		<stop  offset="1" style="stop-color:#358941;stop-opacity:0"/>
	</linearGradient>
	<path style="fill:url(#SVGID_00000005268769889208855400000016588572575565735851_);" d="M1793.21,2309.43l-12.22-134.14
		l68.03-70.13l27.38-25.69l21.25,229.96C1862.83,2309.43,1828.02,2309.43,1793.21,2309.43z"/>
	
		<linearGradient id="SVGID_00000150782245976518942940000005579464487575837619_" gradientUnits="userSpaceOnUse" x1="1582.8315" y1="2321.5103" x2="1342.8883" y2="2160.2683">
		<stop  offset="5.586592e-03" style="stop-color:#358941"/>
		<stop  offset="1" style="stop-color:#358941;stop-opacity:0"/>
	</linearGradient>
	<path style="fill:url(#SVGID_00000150782245976518942940000005579464487575837619_);" d="M1599.24,2197.91
		c-15.95,47.54-75.59,90.39-98.79,105.61c-1.63-8.52-6.8-18.09-15.44-28.65c-10.72-13.11-22.27-19.66-34.62-19.66h-207.27
		l-16.66-79.39l18.19-51.56h238.22c53.13,0,88.99,18.35,107.56,55.04C1593.56,2185.31,1596.5,2191.53,1599.24,2197.91z"/>
	<g>
		
			<linearGradient id="SVGID_00000164513637604575175760000000553227142229838738_" gradientUnits="userSpaceOnUse" x1="2046.7389" y1="1514.4796" x2="2655.8948" y2="1514.4796">
			<stop  offset="0" style="stop-color:#5EAD46"/>
			<stop  offset="0.9944" style="stop-color:#044D4C"/>
		</linearGradient>
		<path style="fill:url(#SVGID_00000164513637604575175760000000553227142229838738_);" d="M2607.69,1088.7
			c14.72,30.64,32.46,75.69,41.78,132.51c1.98,12.1,9.78,58.12,4.78,119.38c-3.08,37.63-8.85,101.54-41.78,176.68
			c-8.72,19.9-46.61,102.78-132.4,179.17c-27.16,24.19-75.57,66.51-149.56,94.35c-57.76,21.74-124.1,33.92-124.1,33.92
			c-42.34,9.46-62.74,11.88-83.39,28.81c-29.78,24.43-38.96,61.74-42.18,86.75c-1.45-36.92,0.54-95.48,23.08-161.56
			c40.32-118.19,121.29-186.8,181.92-238.18c41.73-35.37,108.78-84.6,203.27-124.73c-130.13,31.43-217.98,86.67-266.84,123.11
			c-77.41,57.74-108.06,106.42-117.16,121.62c-31.66,52.88-43.64,103.34-48.7,136.36c-1.77-9.23-3.83-18.41-5.27-27.69
			c-4.71-30.27-5.67-60.71-2.72-91.2c6.85-70.89,32.12-134.36,77.06-189.84c33.09-40.86,73.46-72.99,118.5-99.69
			c42.21-25.02,92.57-58.73,166.05-80.66c41.34-12.34,76.42-17.36,118.26-47.71c11.59-8.41,30.52-22.37,47.18-46.05
			C2609.05,1166.28,2609.33,1113.23,2607.69,1088.7z"/>
		
			<linearGradient id="SVGID_00000066517576067701943780000006728917150563590272_" gradientUnits="userSpaceOnUse" x1="1561.1389" y1="1587.4913" x2="2068.7319" y2="1587.4913">
			<stop  offset="0" style="stop-color:#5EAD46"/>
			<stop  offset="0.9944" style="stop-color:#044D4C"/>
		</linearGradient>
		<path style="fill:url(#SVGID_00000066517576067701943780000006728917150563590272_);" d="M2035.28,1834.99
			c-10.56-1.26-21.2-2.02-31.66-3.85c-40.56-7.09-78.3-21.51-112.68-44.4c-38.37-25.55-69.24-58.48-94.47-96.81
			c-29.22-44.4-47.4-81.87-65.23-123.98c-34.97-82.6-30.23-102.69-57.09-133.45c-30.79-35.25-73.8-50.96-113.01-58.1
			c18.37-7.22,42.87-15.6,72.42-22.28c49.52-11.21,88.17-11.99,95.58-12.1c83.71-1.2,148.89,27.92,178.71,40.44
			c61.37,25.76,114.18,63.2,155.85,115.59c1.45,1.82,2.86,3.68,4.25,5.54c0.27,0.36,0.4,0.82,0.78,1.64
			c-20.9,35.19-36.61,72.78-46.21,112.9c-9.61,40.14-12.56,80.83-10.39,122.42c-2.2-1.1-5.49-2.78-9.41-4.95
			c-58.29-32.27-89.36-79.84-108.11-109.28c-16.14-25.34-37.83-65.65-51.73-120.17c-3.43,19.84-6.66,53.58,3.18,93.12
			c15.22,61.14,52.2,98.02,68.44,113.81c34.65,33.67,71.48,50.76,95.83,59.5c1.43,0.8,3.47,2.23,4.91,4.64
			c1.31,2.2,1.56,4.27,1.67,5.08c0.84,6.45,2.13,12.85,3.47,19.22C2023.9,1816.27,2025.78,1820.33,2035.28,1834.99z"/>
	</g>
</g>
</svg>
